<?xml version="1.0" encoding="UTF-8" standalone="no"?>
<svg
   xmlns:dc="http://purl.org/dc/elements/1.1/"
   xmlns:cc="http://creativecommons.org/ns#"
   xmlns:rdf="http://www.w3.org/1999/02/22-rdf-syntax-ns#"
   xmlns:svg="http://www.w3.org/2000/svg"
   xmlns="http://www.w3.org/2000/svg"
   xmlns:sodipodi="http://sodipodi.sourceforge.net/DTD/sodipodi-0.dtd"
   xmlns:inkscape="http://www.inkscape.org/namespaces/inkscape"
   inkscape:version="1.0 (4035a4f, 2020-05-01)"
   sodipodi:docname="logo.svg"
   id="svg881"
   version="1.1"
   width="512pt"
   viewBox="0 -30 512 511"
   height="512pt">
  <metadata
     id="metadata887">
    <rdf:RDF>
      <cc:Work
         rdf:about="">
        <dc:format>image/svg+xml</dc:format>
        <dc:type
           rdf:resource="http://purl.org/dc/dcmitype/StillImage" />
      </cc:Work>
    </rdf:RDF>
  </metadata>
  <defs
     id="defs885">
    <rect
       id="rect84"
       height="840.17059"
       width="2875.2505"
       y="1526.6057"
       x="1414.2872" />
  </defs>
  <sodipodi:namedview
     inkscape:current-layer="g80"
     inkscape:window-maximized="0"
     inkscape:window-y="23"
     inkscape:window-x="0"
     inkscape:cy="2129.3202"
     inkscape:cx="-170.95031"
     inkscape:zoom="0.16068165"
     showgrid="false"
     id="namedview883"
     inkscape:window-height="925"
     inkscape:window-width="1680"
     inkscape:pageshadow="2"
     inkscape:pageopacity="0"
     guidetolerance="10"
     gridtolerance="10"
     objecttolerance="10"
     borderopacity="1"
     bordercolor="#666666"
     pagecolor="#ffffff"
     inkscape:document-rotation="0" />
  <g
     transform="translate(-1100.2327,846.55955)"
     id="g895"
     inkscape:export-xdpi="96"
     inkscape:export-ydpi="96">
    <path
       d="M 501.69922,133.26562 H 0 v 253.95313 c 0,35.52734 28.800781,64.33203 64.328125,64.33203 H 501.69922 c 5.6875,0 10.30078,-4.61328 10.30078,-10.30469 V 143.56641 c 0,-5.69141 -4.61328,-10.30078 -10.30078,-10.30079 z m 0,0"
       fill="#64bdff"
       id="path833" />
    <path
       d="M 512,143.57031 V 441.25 c 0,5.6875 -4.61328,10.30078 -10.30078,10.30078 h -25.97266 c 5.6875,0 10.30078,-4.61328 10.30078,-10.30078 V 143.57031 c 0,-5.69922 -4.61328,-10.30469 -10.30078,-10.30469 h 25.97266 c 5.6875,0 10.30078,4.60547 10.30078,10.30469 z m 0,0"
       fill="#43a3f9"
       id="path835" />
    <g
       fill="#1685fb"
       id="g871">
      <path
         d="m 90.507812,308.50781 c 0,5.69141 -4.609374,10.30078 -10.300781,10.30078 H 64.324219 C 28.800781,318.80859 0,347.60937 0,383.13672 V 64.828125 C 0,29.300781 28.800781,0.5 64.328125,0.5 h 15.878906 c 5.6875,0 10.300781,4.613281 10.300781,10.300781 z m 0,0"
         id="path837" />
      <path
         d="m 463.96094,266.51953 c 0,-32.76172 -26.65235,-59.41016 -59.41016,-59.41016 -31.5625,0 -57.44531,24.73829 -59.29687,55.84375 H 309.6875 c -4.26563,0 -7.72266,3.45704 -7.72266,7.72657 v 88.25781 c 0,4.26562 3.45703,7.72656 7.72266,7.72656 h 88.25781 c 4.26953,0 7.72656,-3.46094 7.72656,-7.72656 v -33.03516 c 32.24219,-0.60156 58.28907,-27 58.28907,-59.38281 z m -59.41016,-43.96094 c 24.23828,0 43.95703,19.72266 43.95703,43.96094 0,23.86328 -19.11328,43.33203 -42.83593,43.92969 v -39.76953 c 0,-4.26953 -3.45704,-7.72657 -7.72657,-7.72657 h -37.19922 c 1.82422,-22.57421 20.76563,-40.39453 43.80469,-40.39453 z m -14.33203,85.51172 c -13.53125,-4.68359 -24.08203,-15.79297 -27.98438,-29.66406 h 27.98438 z m -72.80469,43.14063 v -72.80469 h 28.91797 c 4.57031,22.41797 21.8125,40.28125 43.88672,45.76953 v 27.03516 z m 0,0"
         id="path839" />
      <path
         d="M 450.4375,331.26562 H 433.25 c -4.26563,0 -7.72656,3.46094 -7.72656,7.72657 0,4.26953 3.46093,7.72656 7.72656,7.72656 h 17.1875 c 4.26953,0 7.72656,-3.45703 7.72656,-7.72656 0,-4.26563 -3.45703,-7.72657 -7.72656,-7.72657 z m 0,0"
         id="path841" />
      <path
         d="M 450.4375,351.21094 H 433.25 c -4.26563,0 -7.72656,3.45703 -7.72656,7.72656 0,4.26562 3.46093,7.72266 7.72656,7.72266 h 17.1875 c 4.26953,0 7.72656,-3.45704 7.72656,-7.72266 0,-4.26953 -3.45703,-7.72656 -7.72656,-7.72656 z m 0,0"
         id="path843" />
      <path
         d="m 133.40625,204.03125 h 12.36328 c 4.26563,0 7.72656,-3.46094 7.72656,-7.72656 0,-4.26563 -3.46093,-7.72657 -7.72656,-7.72657 h -12.36328 c -4.26563,0 -7.72266,3.46094 -7.72266,7.72657 0,4.26562 3.45703,7.72656 7.72266,7.72656 z m 0,0"
         id="path845" />
      <path
         d="m 133.40625,226.53906 h 59.64453 c 4.26563,0 7.72656,-3.45703 7.72656,-7.72656 0,-4.26563 -3.46093,-7.72266 -7.72656,-7.72266 h -59.64453 c -4.26563,0 -7.72266,3.45703 -7.72266,7.72266 0,4.26953 3.45703,7.72656 7.72266,7.72656 z m 0,0"
         id="path847" />
      <path
         d="m 180.6875,204.03125 h 12.36328 c 4.26563,0 7.72656,-3.46094 7.72656,-7.72656 0,-4.26563 -3.46093,-7.72657 -7.72656,-7.72657 H 180.6875 c -4.26563,0 -7.72266,3.46094 -7.72266,7.72657 0,4.26562 3.45703,7.72656 7.72266,7.72656 z m 0,0"
         id="path849" />
      <path
         d="m 227.96875,204.03125 h 12.36328 c 4.26563,0 7.72656,-3.46094 7.72656,-7.72656 0,-4.26563 -3.46093,-7.72657 -7.72656,-7.72657 h -12.36328 c -4.26563,0 -7.72656,3.46094 -7.72656,7.72657 0,4.26562 3.46093,7.72656 7.72656,7.72656 z m 0,0"
         id="path851" />
      <path
         d="m 133.40625,248.88281 h 59.64453 c 4.26563,0 7.72656,-3.46094 7.72656,-7.72656 0,-4.26953 -3.46093,-7.72656 -7.72656,-7.72656 h -59.64453 c -4.26563,0 -7.72266,3.45703 -7.72266,7.72656 0,4.26562 3.45703,7.72656 7.72266,7.72656 z m 0,0"
         id="path853" />
      <path
         d="m 133.40625,271.22266 h 94.5625 c 4.26562,0 7.72656,-3.46094 7.72656,-7.72657 0,-4.26562 -3.46094,-7.72656 -7.72656,-7.72656 h -94.5625 c -4.26563,0 -7.72266,3.46094 -7.72266,7.72656 0,4.26563 3.45703,7.72657 7.72266,7.72657 z m 0,0"
         id="path855" />
      <path
         d="m 133.40625,293.5625 h 106.92578 c 4.26563,0 7.72656,-3.45703 7.72656,-7.72656 0,-4.26563 -3.46093,-7.72657 -7.72656,-7.72657 H 133.40625 c -4.26563,0 -7.72266,3.46094 -7.72266,7.72657 0,4.26953 3.45703,7.72656 7.72266,7.72656 z m 0,0"
         id="path857" />
      <path
         d="m 154.69922,314.10547 h -21.28906 c -4.26954,0 -7.72657,3.45703 -7.72657,7.72656 v 21.28906 c 0,4.26953 3.45703,7.72657 7.72657,7.72657 h 21.28906 c 4.26562,0 7.72656,-3.46094 7.72656,-7.72657 v -21.28906 c 0,-4.26953 -3.46094,-7.72656 -7.72656,-7.72656 z m -7.72656,21.28906 h -5.83985 v -5.83594 h 5.83985 z m 0,0"
         id="path859" />
      <path
         d="m 205.78125,314.10547 h -21.28906 c -4.26563,0 -7.72657,3.45703 -7.72657,7.72656 v 21.28906 c 0,4.26953 3.46094,7.72657 7.72657,7.72657 h 21.28906 c 4.26953,0 7.72656,-3.46094 7.72656,-7.72657 v -21.28906 c 0,-4.26953 -3.45703,-7.72656 -7.72656,-7.72656 z m -7.72656,21.28906 h -5.83594 v -5.83594 h 5.83594 z m 0,0"
         id="path861" />
      <path
         d="m 256.86719,314.10547 h -21.29297 c -4.26563,0 -7.72266,3.45703 -7.72266,7.72656 v 21.28906 c 0,4.26953 3.45703,7.72657 7.72266,7.72657 h 21.29297 c 4.26562,0 7.72656,-3.46094 7.72656,-7.72657 v -21.28906 c 0,-4.26953 -3.46094,-7.72656 -7.72656,-7.72656 z m -7.72657,21.28906 h -5.83593 v -5.83594 h 5.83593 z m 0,0"
         id="path863" />
      <path
         d="m 154.69922,368.35937 h -21.28906 c -4.26954,0 -7.72657,3.46094 -7.72657,7.72657 v 21.29297 c 0,4.26562 3.45703,7.72656 7.72657,7.72656 h 21.28906 c 4.26562,0 7.72656,-3.46094 7.72656,-7.72656 v -21.29297 c 0,-4.26563 -3.46094,-7.72657 -7.72656,-7.72657 z m -7.72656,21.29297 h -5.83985 v -5.83984 h 5.83985 z m 0,0"
         id="path865" />
      <path
         d="m 205.78125,368.35937 h -21.28906 c -4.26563,0 -7.72657,3.46094 -7.72657,7.72657 v 21.29297 c 0,4.26562 3.46094,7.72656 7.72657,7.72656 h 21.28906 c 4.26953,0 7.72656,-3.46094 7.72656,-7.72656 v -21.29297 c 0,-4.26563 -3.45703,-7.72657 -7.72656,-7.72657 z m -7.72656,21.29297 h -5.83594 v -5.83984 h 5.83594 z m 0,0"
         id="path867" />
      <path
         d="m 256.86719,368.35937 h -21.29297 c -4.26563,0 -7.72266,3.46094 -7.72266,7.72657 v 21.29297 c 0,4.26562 3.45703,7.72656 7.72266,7.72656 h 21.29297 c 4.26562,0 7.72656,-3.46094 7.72656,-7.72656 v -21.29297 c 0,-4.26563 -3.46094,-7.72657 -7.72656,-7.72657 z m -7.72657,21.29297 h -5.83593 v -5.83984 h 5.83593 z m 0,0"
         id="path869" />
    </g>
    <path
       d="m 322.42578,215.76172 -33.17187,16.49219 c -3.70313,1.83984 -7.7461,-1.79688 -6.3125,-5.67188 l 12.84765,-34.74609 z m 0,0"
       fill="#4e7693"
       id="path873" />
    <path
       d="M 329.55859,213.72266 462.69922,65.503906 c 2.80859,-3.121094 2.55469,-7.929687 -0.57422,-10.742187 l -21.1875,-19.03125 c -3.12891,-2.808594 -7.93359,-2.546875 -10.74219,0.578125 L 297.05469,184.52734 c -2.8086,3.12891 -2.55078,7.92969 0.57812,10.74219 l 21.1836,19.03125 c 3.13281,2.80859 7.93359,2.55469 10.74218,-0.57812 z m 0,0"
       fill="#c0ff66"
       id="path875"
       style="fill:#44a3f8;fill-opacity:1" />
    <path
       d="M 329.55859,213.72266 462.69922,65.503906 c 2.80859,-3.121094 2.55469,-7.929687 -0.57422,-10.742187 l -10.59375,-9.515625 -143.30469,159.539066 10.58985,9.51562 c 3.13281,2.80859 7.93359,2.55469 10.74218,-0.57812 z m 0,0"
       fill="#9be058"
       id="path877"
       style="fill:#1585fb;fill-opacity:1" />
    <path
       d="m 448.27734,81.558594 14.42188,-16.050782 c 2.80469,-3.125 2.55469,-7.933593 -0.57813,-10.742187 L 440.9375,35.734375 c -3.12891,-2.8125 -7.9375,-2.550781 -10.74219,0.574219 l -14.42187,16.054687 z m 0,0"
       fill="#fd82ac"
       id="path879"
       style="fill:#4e7693;fill-opacity:1" />
  </g>
  <g
     inkscape:export-ydpi="96"
     inkscape:export-xdpi="96"
     transform="translate(0,-12.125328)"
     id="g80">
    <text
       inkscape:export-ydpi="96"
       inkscape:export-xdpi="96"
       id="text44-6"
       y="1193.1603"
       x="-445.27649"
       style="font-style:normal;font-weight:normal;font-size:300px;line-height:1.25;font-family:sans-serif;fill:#1685fb;fill-opacity:1;stroke:none;stroke-width:0.75"
       xml:space="preserve"><tspan
         style="font-style:normal;font-variant:normal;font-weight:bold;font-stretch:normal;font-size:300px;font-family:Lato;-inkscape-font-specification:'Lato Bold';fill:#1685fb;fill-opacity:1;stroke-width:0.75"
         y="1193.1603"
         x="-445.27649"
         id="tspan42-1"
         sodipodi:role="line">SUMERIA</tspan></text>
    <text
       style="fill:black;fill-opacity:1;line-height:1.25;stroke:none;font-family:sans-serif;font-style:normal;font-weight:normal;font-size:29.99999911000000097px;white-space:pre;shape-inside:url(#rect84);"
       id="text82"
       xml:space="preserve" />
  </g>
</svg>
